<svg width="115" height="105" viewBox="0 0 115 105" fill="none" xmlns="http://www.w3.org/2000/svg">
<mask id="mask0_1332_28" style="mask-type:alpha" maskUnits="userSpaceOnUse" x="24" y="36" width="67" height="69">
<rect x="24" y="36" width="67" height="69" fill="#D9D9D9"/>
</mask>
<g mask="url(#mask0_1332_28)">
<path d="M79.6988 55.6812C72 61.5 67.4433 64.1571 57.9036 64.1571C48.3639 64.1571 43.7771 60.9281 36.1084 55.6812" stroke="white" stroke-width="10" stroke-linecap="square"/>
<path d="M86.9639 87.5V69.8073C86.9639 53.7578 73.9532 40.7471 57.9036 40.7471V40.7471C41.8541 40.7471 28.8434 53.7578 28.8434 69.8073V87" stroke="white" stroke-width="5" stroke-linecap="round"/>
<mask id="mask1_1332_28" style="mask-type:alpha" maskUnits="userSpaceOnUse" x="73" y="39" width="22" height="66">
<rect x="73.5" y="39.5" width="21" height="65" fill="#D9D9D9" stroke="white"/>
</mask>
<g mask="url(#mask1_1332_28)">
<path d="M84.9639 87.5V69.8073C84.9639 53.7578 71.9532 40.7471 55.9036 40.7471V40.7471C39.8541 40.7471 26.8434 53.7578 26.8434 69.8073V87" stroke="white" stroke-width="10" stroke-linecap="round"/>
</g>
</g>
<circle cx="58" cy="31" r="26.5" stroke="#141414" stroke-width="5"/>
<circle cx="58" cy="31" r="22.5" fill="#141414" stroke="white" stroke-width="5"/>
</svg>
