<svg width="115" height="106" viewBox="0 0 115 106" fill="none" xmlns="http://www.w3.org/2000/svg">
<mask id="mask0_1332_27" style="mask-type:alpha" maskUnits="userSpaceOnUse" x="24" y="37" width="67" height="69">
<rect x="24" y="37" width="67" height="69" fill="#D9D9D9"/>
</mask>
<g mask="url(#mask0_1332_27)">
<path d="M79.6988 56.6812C72 62.5 67.4433 65.1571 57.9036 65.1571C48.3639 65.1571 43.7771 61.9281 36.1084 56.6812" stroke="black" stroke-width="10" stroke-linecap="square"/>
<path d="M86.9639 88.5V70.8073C86.9639 54.7578 73.9532 41.7471 57.9036 41.7471V41.7471C41.8541 41.7471 28.8434 54.7578 28.8434 70.8073V88" stroke="black" stroke-width="5" stroke-linecap="round"/>
<mask id="mask1_1332_27" style="mask-type:alpha" maskUnits="userSpaceOnUse" x="73" y="40" width="22" height="66">
<rect x="73" y="40" width="22" height="66" fill="#D9D9D9"/>
</mask>
<g mask="url(#mask1_1332_27)">
<path d="M84.9639 88.5V70.8073C84.9639 54.7578 71.9532 41.7471 55.9036 41.7471V41.7471C39.8541 41.7471 26.8434 54.7578 26.8434 70.8073V88" stroke="black" stroke-width="10" stroke-linecap="round"/>
</g>
</g>
<circle cx="58" cy="32" r="26.5" fill="white" stroke="white" stroke-width="5"/>
<circle cx="58" cy="32" r="22.5" fill="white" stroke="black" stroke-width="5"/>
</svg>
