<svg width="115" height="101" viewBox="0 0 115 101" fill="none" xmlns="http://www.w3.org/2000/svg">
<path d="M28 98H25.5C25.5 98.9852 26.0787 99.8786 26.9778 100.281C27.8769 100.684 28.9288 100.522 29.664 99.8657L28 98ZM46.5 81.5L48.164 79.6343C47.2158 78.7886 45.7842 78.7886 44.836 79.6343L46.5 81.5ZM65 98L63.336 99.8657C64.0712 100.522 65.1231 100.684 66.0222 100.281C66.9213 99.8786 67.5 98.9852 67.5 98H65ZM65 14V11.5C63.6193 11.5 62.5 12.6193 62.5 14H65ZM76 14V16.5C77.3807 16.5 78.5 15.3807 78.5 14H76ZM76 3H78.5C78.5 1.61929 77.3807 0.5 76 0.5V3ZM30.5 14C30.5 11.6875 31.071 10.1193 31.7989 9.02738C32.5372 7.91984 33.5396 7.15028 34.618 6.61107C35.7062 6.06696 36.8247 5.78245 37.6922 5.63786C38.1201 5.56655 38.4711 5.53187 38.7055 5.51513C38.8222 5.50679 38.9087 5.503 38.9598 5.5013C38.9853 5.50045 39.0018 5.50012 39.0088 5.50001C39.0122 5.49995 39.0133 5.49995 39.0119 5.49996C39.0112 5.49997 39.0098 5.49998 39.0078 5.49999C39.0069 5.49999 39.0057 5.49999 39.0044 5.5C39.0037 5.5 39.0026 5.5 39.0023 5.5C39.0012 5.5 39 5.5 39 3C39 0.5 38.9987 0.5 38.9974 0.500001C38.9969 0.500002 38.9956 0.500004 38.9946 0.500005C38.9926 0.500009 38.9905 0.500015 38.9882 0.500025C38.9835 0.500043 38.9782 0.500073 38.9722 0.500121C38.9602 0.500216 38.9455 0.500381 38.9281 0.500661C38.8935 0.50122 38.8482 0.502238 38.7932 0.504073C38.6831 0.507742 38.5333 0.514691 38.3492 0.527838C37.982 0.554069 37.4737 0.605321 36.8703 0.70589C35.6753 0.905054 34.0438 1.30804 32.382 2.13893C30.7104 2.97472 28.9628 4.26766 27.6386 6.25387C26.304 8.25574 25.5 10.8125 25.5 14H30.5ZM30.5 98V14H25.5V98H30.5ZM44.836 79.6343L26.336 96.1343L29.664 99.8657L48.164 83.3657L44.836 79.6343ZM66.664 96.1343L48.164 79.6343L44.836 83.3657L63.336 99.8657L66.664 96.1343ZM62.5 14V98H67.5V14H62.5ZM76 11.5H65V16.5H76V11.5ZM73.5 3V14H78.5V3H73.5ZM39 5.5H76V0.5H39V5.5Z" fill="white"/>
<path fill-rule="evenodd" clip-rule="evenodd" d="M76 3C76 3 65 3 65 14V57H87V14C87 14 87 3 76 3Z" fill="white"/>
<path d="M65 57H62.5C62.5 58.3807 63.6193 59.5 65 59.5V57ZM87 57V59.5C88.3807 59.5 89.5 58.3807 89.5 57H87ZM67.5 14C67.5 11.6875 68.071 10.1193 68.7989 9.02738C69.5372 7.91984 70.5396 7.15028 71.618 6.61107C72.7062 6.06696 73.8247 5.78245 74.6922 5.63786C75.1201 5.56655 75.4711 5.53187 75.7055 5.51513C75.8222 5.50679 75.9087 5.503 75.9598 5.5013C75.9853 5.50045 76.0018 5.50012 76.0088 5.50001C76.0122 5.49995 76.0133 5.49995 76.0119 5.49996C76.0112 5.49997 76.0098 5.49998 76.0078 5.49999C76.0069 5.49999 76.0057 5.49999 76.0044 5.5C76.0037 5.5 76.0026 5.5 76.0023 5.5C76.0012 5.5 76 5.5 76 3C76 0.5 75.9987 0.5 75.9974 0.500001C75.9969 0.500002 75.9956 0.500004 75.9946 0.500005C75.9926 0.500009 75.9905 0.500015 75.9882 0.500025C75.9835 0.500043 75.9782 0.500073 75.9722 0.500121C75.9602 0.500216 75.9455 0.500381 75.9281 0.500661C75.8935 0.50122 75.8482 0.502238 75.7932 0.504073C75.6831 0.507742 75.5333 0.514691 75.3492 0.527838C74.982 0.554069 74.4737 0.605321 73.8703 0.70589C72.6753 0.905054 71.0438 1.30804 69.382 2.13893C67.7104 2.97472 65.9628 4.26766 64.6386 6.25387C63.304 8.25574 62.5 10.8125 62.5 14H67.5ZM67.5 57V14H62.5V57H67.5ZM87 54.5H65V59.5H87V54.5ZM84.5 14V57H89.5V14H84.5ZM76 5.5C78.3125 5.5 79.8807 6.07095 80.9726 6.79888C82.0802 7.53723 82.8497 8.53961 83.3889 9.61803C83.933 10.7062 84.2176 11.8247 84.3621 12.6922C84.4334 13.1201 84.4681 13.4711 84.4849 13.7055C84.4932 13.8222 84.497 13.9087 84.4987 13.9598C84.4996 13.9853 84.4999 14.0018 84.5 14.0088C84.5 14.0122 84.5 14.0133 84.5 14.0119C84.5 14.0112 84.5 14.0098 84.5 14.0078C84.5 14.0069 84.5 14.0057 84.5 14.0044C84.5 14.0037 84.5 14.0026 84.5 14.0023C84.5 14.0012 84.5 14 87 14C89.5 14 89.5 13.9987 89.5 13.9974C89.5 13.9969 89.5 13.9956 89.5 13.9946C89.5 13.9926 89.5 13.9905 89.5 13.9882C89.5 13.9835 89.4999 13.9782 89.4999 13.9722C89.4998 13.9602 89.4996 13.9455 89.4993 13.9281C89.4988 13.8935 89.4978 13.8482 89.4959 13.7932C89.4923 13.6831 89.4853 13.5333 89.4722 13.3492C89.4459 12.982 89.3947 12.4737 89.2941 11.8703C89.0949 10.6753 88.692 9.04375 87.8611 7.38197C87.0253 5.71039 85.7323 3.96277 83.7461 2.63862C81.7443 1.30405 79.1875 0.5 76 0.5V5.5Z" fill="white"/>
</svg>
